<svg width="40" height="40" viewBox="0 0 40 40" fill="none" xmlns="http://www.w3.org/2000/svg">
<path d="M20 36.6667C10.795 36.6667 3.33331 29.205 3.33331 20C3.33331 10.795 10.795 3.33334 20 3.33334C29.205 3.33334 36.6666 10.795 36.6666 20C36.6666 29.205 29.205 36.6667 20 36.6667ZM18.3333 25V28.3333H21.6666V25H18.3333ZM21.6666 22.2583C23.0061 21.8546 24.156 20.9833 24.9069 19.8029C25.6578 18.6226 25.9598 17.2118 25.7579 15.8275C25.5559 14.4431 24.8635 13.1774 23.8067 12.2608C22.7498 11.3441 21.3989 10.8376 20 10.8333C18.6514 10.8332 17.3444 11.3003 16.3013 12.155C15.2582 13.0097 14.5433 14.1994 14.2783 15.5217L17.5483 16.1767C17.6411 15.7124 17.8638 15.284 18.1906 14.9414C18.5173 14.5987 18.9347 14.3559 19.394 14.2412C19.8534 14.1265 20.3359 14.1445 20.7853 14.2933C21.2348 14.4421 21.6328 14.7154 21.933 15.0815C22.2332 15.4477 22.4233 15.8915 22.4811 16.3614C22.5389 16.8313 22.4621 17.308 22.2596 17.736C22.0571 18.164 21.7372 18.5256 21.3372 18.7789C20.9372 19.0322 20.4734 19.1666 20 19.1667C19.558 19.1667 19.134 19.3423 18.8215 19.6548C18.5089 19.9674 18.3333 20.3913 18.3333 20.8333V23.3333H21.6666V22.2583Z" fill="#3352F4"/>
</svg>
