<svg width="46" height="46" viewBox="0 0 46 46" fill="none" xmlns="http://www.w3.org/2000/svg">
<path d="M23.1916 40.25C22.6486 40.25 22.1937 40.066 21.827 39.698C21.4603 39.33 21.2763 38.8751 21.275 38.3333C21.275 38.1097 21.3229 37.8778 21.4187 37.6376C21.5146 37.3974 21.6583 37.182 21.85 36.9917L30.7146 28.1271L29.325 26.7375L20.5083 35.6021C20.3166 35.7937 20.109 35.9375 19.8854 36.0333C19.6618 36.1292 19.4222 36.1771 19.1666 36.1771C18.6236 36.1771 18.1681 35.9937 17.8001 35.627C17.4321 35.2603 17.2487 34.8047 17.25 34.2604C17.25 33.941 17.2979 33.6771 17.3937 33.4688C17.4896 33.2605 17.6173 33.0772 17.7771 32.9187L26.6416 24.0542L25.3 22.7125L16.4354 31.5292C16.2437 31.7208 16.0361 31.8646 15.8125 31.9604C15.5889 32.0562 15.3333 32.1042 15.0458 32.1042C14.5347 32.1042 14.0875 31.9125 13.7041 31.5292C13.3208 31.1458 13.1291 30.6986 13.1291 30.1875C13.1291 29.9319 13.1771 29.6924 13.2729 29.4687C13.3687 29.2451 13.5125 29.0375 13.7041 28.8458L22.5687 19.9812L21.1791 18.6396L12.3625 27.5042C12.2028 27.6639 12.0111 27.7917 11.7875 27.8875C11.5639 27.9833 11.2923 28.0312 10.9729 28.0312C10.4298 28.0312 9.97431 27.8472 9.60631 27.4792C9.23831 27.1112 9.05495 26.6564 9.05623 26.1146C9.05623 25.859 9.10415 25.6194 9.19998 25.3958C9.29581 25.1722 9.43956 24.9646 9.63123 24.7729L20.3166 14.0875L27.5041 21.3229C27.8555 21.6743 28.2708 21.9541 28.75 22.1624C29.2291 22.3707 29.7083 22.4742 30.1875 22.4729C31.2097 22.4729 32.1041 22.1132 32.8708 21.3938C33.6375 20.6744 34.0208 19.7564 34.0208 18.6396C34.0208 18.1924 33.941 17.7292 33.7812 17.25C33.6215 16.7708 33.334 16.3236 32.9187 15.9083L24.3416 7.33124C24.8847 6.82013 25.4916 6.42849 26.1625 6.15633C26.8333 5.88416 27.5041 5.74872 28.175 5.74999C29.0055 5.74999 29.7722 5.88608 30.475 6.15824C31.1778 6.43041 31.8166 6.85335 32.3916 7.42708L40.4896 15.5729C41.0646 16.1479 41.4881 16.7868 41.7603 17.4896C42.0325 18.1924 42.1679 19.0069 42.1666 19.9333C42.1666 20.5722 42.0229 21.2188 41.7354 21.873C41.4479 22.5272 41.0326 23.1265 40.4896 23.6708L24.5333 39.675C24.2778 39.9305 24.0541 40.0903 23.8625 40.1542C23.6708 40.218 23.4472 40.25 23.1916 40.25ZM6.75623 24.9167L5.5104 23.6708C4.96734 23.1597 4.55206 22.5528 4.26456 21.85C3.97706 21.1472 3.83331 20.4125 3.83331 19.6458C3.83331 18.8153 3.99304 18.0486 4.31248 17.3458C4.63192 16.643 5.03123 16.0521 5.5104 15.5729L13.6083 7.42708C14.1194 6.91597 14.7264 6.50835 15.4291 6.20424C16.1319 5.90013 16.8187 5.74872 17.4896 5.74999C18.3521 5.74999 19.1187 5.8701 19.7896 6.11033C20.4604 6.35055 21.1153 6.78947 21.7541 7.42708L31.5771 17.25C31.7687 17.4417 31.9125 17.6493 32.0083 17.8729C32.1041 18.0965 32.1521 18.3361 32.1521 18.5917C32.1521 19.1028 31.9604 19.55 31.5771 19.9333C31.1937 20.3167 30.7465 20.5083 30.2354 20.5083C29.9479 20.5083 29.7083 20.4681 29.5166 20.3876C29.325 20.3071 29.1173 20.1557 28.8937 19.9333L20.2687 11.4042L6.75623 24.9167Z" fill="#FFBC7E"/>
</svg>
