<svg width="50" height="50" viewBox="0 0 50 50" fill="none" xmlns="http://www.w3.org/2000/svg">
<path fill-rule="evenodd" clip-rule="evenodd" d="M34.7292 27.3542C37.5834 29.2917 39.5834 31.9167 39.5834 35.4167V41.6667H47.9167V35.4167C47.9167 30.875 40.4792 28.1875 34.7292 27.3542Z" fill="#400E60"/>
<path d="M18.75 25C23.3524 25 27.0834 21.269 27.0834 16.6667C27.0834 12.0643 23.3524 8.33333 18.75 8.33333C14.1476 8.33333 10.4167 12.0643 10.4167 16.6667C10.4167 21.269 14.1476 25 18.75 25Z" fill="#400E60"/>
<path fill-rule="evenodd" clip-rule="evenodd" d="M31.25 25C35.8541 25 39.5833 21.2708 39.5833 16.6667C39.5833 12.0625 35.8541 8.33333 31.25 8.33333C30.2708 8.33333 29.3541 8.54166 28.4791 8.83333C30.2719 11.0504 31.2499 13.8154 31.2499 16.6667C31.2499 19.5179 30.2719 22.2829 28.4791 24.5C29.3541 24.7917 30.2708 25 31.25 25ZM18.75 27.0833C13.1875 27.0833 2.08331 29.875 2.08331 35.4167V41.6667H35.4166V35.4167C35.4166 29.875 24.3125 27.0833 18.75 27.0833Z" fill="#400E60"/>
</svg>
