<svg width="52" height="52" viewBox="0 0 52 52" fill="none" xmlns="http://www.w3.org/2000/svg">
<path d="M26 6.5L26.0217 29.3583C24.7433 28.6217 23.27 28.1667 21.6883 28.1667C20.5339 28.1409 19.3859 28.3459 18.3119 28.7699C17.2378 29.1938 16.2592 29.8281 15.4336 30.6354C14.608 31.4427 13.9521 32.4069 13.5042 33.4712C13.0564 34.5355 12.8257 35.6786 12.8257 36.8333C12.8257 37.988 13.0564 39.1311 13.5042 40.1955C13.9521 41.2598 14.608 42.2239 15.4336 43.0313C16.2592 43.8386 17.2378 44.4728 18.3119 44.8968C19.3859 45.3207 20.5339 45.5258 21.6883 45.5C26.4983 45.5 30.3333 41.6217 30.3333 36.8333V15.1667H39V6.5H26ZM21.6883 41.1667C19.305 41.1667 17.355 39.2167 17.355 36.8333C17.355 34.45 19.305 32.5 21.6883 32.5C24.0717 32.5 26.0217 34.45 26.0217 36.8333C26.0217 39.2167 24.0717 41.1667 21.6883 41.1667Z" fill="#00D1FF"/>
</svg>
