<svg width="46" height="46" viewBox="0 0 46 46" fill="none" xmlns="http://www.w3.org/2000/svg">
<path d="M44.0834 19.1667C44.0834 18.15 43.6795 17.175 42.9606 16.4561C42.2417 15.7372 41.2667 15.3333 40.25 15.3333H28.1367L29.9767 6.57417C30.015 6.3825 30.0342 6.17167 30.0342 5.96083C30.0342 5.175 29.7084 4.44667 29.1909 3.92917L27.1592 1.91667L14.5475 14.5283C13.8384 15.2375 13.4167 16.1958 13.4167 17.25V36.4167C13.4167 37.4333 13.8206 38.4084 14.5394 39.1272C15.2583 39.8461 16.2334 40.25 17.25 40.25H34.5C36.0909 40.25 37.4517 39.2917 38.0267 37.9117L43.815 24.3992C43.9875 23.9583 44.0834 23.4983 44.0834 23V19.1667ZM1.91669 40.25H9.58335V17.25H1.91669V40.25Z" fill="#2D861E"/>
</svg>
