<svg width="57" height="57" viewBox="0 0 57 57" fill="none" xmlns="http://www.w3.org/2000/svg">
<path d="M41.8244 26.7231C41.2739 26.0135 40.6037 25.3985 39.9813 24.7835C38.3776 23.3642 36.5585 22.3471 35.0265 20.8569C31.4601 17.4035 30.6702 11.7029 32.9441 7.32693C30.6702 7.87097 28.6835 9.10097 26.984 10.4492C20.7845 15.3692 18.343 24.0502 21.2632 31.5012C21.359 31.7377 21.4547 31.9742 21.4547 32.2817C21.4547 32.8021 21.0957 33.2752 20.617 33.4644C20.0664 33.701 19.492 33.559 19.0372 33.1806C18.9005 33.0689 18.7868 32.9324 18.7021 32.7785C15.9973 29.396 15.5664 24.5469 17.3856 20.6677C13.3882 23.8846 11.2101 29.325 11.5212 34.4579C11.6648 35.6406 11.8085 36.8233 12.2154 38.006C12.5505 39.4252 13.1968 40.8444 13.9148 42.0981C16.4999 46.1902 20.976 49.1233 25.7872 49.7146C30.9095 50.3533 36.3909 49.4308 40.3164 45.93C44.6968 42.0035 46.2287 35.7115 43.9787 30.3185L43.6675 29.7035C43.1648 28.6154 41.8244 26.7231 41.8244 26.7231ZM34.2606 41.625C33.5904 42.1927 32.4893 42.8077 31.6276 43.0442C28.9468 43.9904 26.2659 42.6658 24.6861 41.1046C27.5345 40.4423 29.234 38.3608 29.7366 36.2556C30.1436 34.3633 29.3776 32.8021 29.0664 30.9808C28.7792 29.2304 28.8271 27.7402 29.4734 26.1081C29.9281 27.0069 30.4069 27.9058 30.9813 28.6154C32.8244 30.9808 35.7207 32.0215 36.343 35.2385C36.4388 35.5696 36.4867 35.9008 36.4867 36.2556C36.5585 38.1952 35.6968 40.324 34.2606 41.625Z" fill="#FF5C00"/>
</svg>
